<svg width="576" height="360" viewBox="0 0 576 360" fill="none" xmlns="http://www.w3.org/2000/svg">
<g clip-path="url(#clip0_57_5)">
<path d="M576 306V360H0V306C0 296.06 8.06 288 18 288H54C63.94 288 72 279.94 72 270V90C72 80.06 80.06 72 90 72H126C135.94 72 144 80.06 144 90V126C144 135.94 152.06 144 162 144H198C207.94 144 216 152.06 216 162V198C216 207.94 224.06 216 234 216H270C279.94 216 288 207.94 288 198V162C288 152.06 296.06 144 306 144H342C351.94 144 360 135.94 360 126V90C360 80.06 351.94 72 342 72H306C296.06 72 288 63.94 288 54V18C288 8.06 296.06 0 306 0H342C351.94 0 360 8.06 360 18V54C360 63.94 368.06 72 378 72H414C423.94 72 432 80.06 432 90V198C432 207.94 440.06 216 450 216H486C495.94 216 504 224.06 504 234V270C504 279.94 512.06 288 522 288H558C567.94 288 576 296.06 576 306Z" fill="#e5e7eb"/>
</g>
<defs>
<clipPath id="clip0_57_5">
<rect width="576" height="360" fill="white"/>
</clipPath>
</defs>
</svg>
