<svg width="1800" height="360" viewBox="0 0 1800 360" fill="none" xmlns="http://www.w3.org/2000/svg">
<g clip-path="url(#clip0_57_3)">
<path d="M1800 306V360H0V306C0 296.06 8.06 288 18 288H198C207.94 288 216 279.94 216 270V90C216 80.06 224.06 72 234 72H414C423.94 72 432 80.06 432 90V126C432 135.94 440.06 144 450 144H630C639.94 144 648 152.06 648 162V198C648 207.94 656.06 216 666 216H918C927.94 216 936 207.94 936 198V162C936 152.06 944.06 144 954 144H1134C1143.94 144 1152 135.94 1152 126V90C1152 80.06 1143.94 72 1134 72H954C944.06 72 936 63.94 936 54V18C936 8.06 944.06 0 954 0H1134C1143.94 0 1152 8.06 1152 18V54C1152 63.94 1160.06 72 1170 72H1350C1359.94 72 1368 80.06 1368 90V198C1368 207.94 1376.06 216 1386 216H1566C1575.94 216 1584 224.06 1584 234V288H1782C1791.94 288 1800 296.06 1800 306Z" fill="#e5e7eb"/>
</g>
<defs>
<clipPath id="clip0_57_3">
<rect width="1800" height="360" fill="white"/>
</clipPath>
</defs>
</svg>
